# Blender 5.1.2
# www.blender.org
mtllib sphere_small.mtl
o Icosphere
v 0.000001 -0.912881 0.000000
v 0.660566 -0.408256 0.479925
v -0.252311 -0.408257 0.776540
v -0.816504 -0.408254 -0.000000
v -0.252311 -0.408257 -0.776540
v 0.660566 -0.408256 -0.479925
v 0.252311 0.408257 0.776540
v -0.660566 0.408256 0.479925
v -0.660566 0.408256 -0.479925
v 0.252311 0.408257 -0.776540
v 0.816504 0.408254 0.000000
v -0.000001 0.912881 0.000000
v -0.145673 -0.762773 0.448341
v 0.381384 -0.762773 0.277089
v 0.235711 -0.471422 0.725432
v 0.762768 -0.471421 0.000000
v 0.381384 -0.762773 -0.277089
v -0.471415 -0.762771 0.000000
v -0.617091 -0.471421 0.448342
v -0.145673 -0.762773 -0.448341
v -0.617091 -0.471421 -0.448342
v 0.235711 -0.471422 -0.725432
v 0.852802 -0.000000 0.277090
v 0.852802 -0.000000 -0.277090
v 0.000000 0.000000 0.896687
v 0.527060 -0.000000 0.725434
v -0.852802 0.000000 0.277090
v -0.527060 0.000000 0.725434
v -0.527060 0.000000 -0.725434
v -0.852802 0.000000 -0.277090
v 0.527060 -0.000000 -0.725434
v -0.000000 0.000000 -0.896687
v 0.617091 0.471421 0.448342
v -0.235711 0.471422 0.725432
v -0.762768 0.471421 0.000000
v -0.235711 0.471422 -0.725432
v 0.617091 0.471421 -0.448342
v 0.145673 0.762773 0.448341
v 0.471415 0.762771 0.000000
v -0.381384 0.762773 0.277089
v -0.381384 0.762773 -0.277089
v 0.145673 0.762773 -0.448341
v -0.069155 -0.878910 0.212838
v 0.555014 -0.593232 0.403237
v -0.030941 -0.454919 0.783998
v 0.736067 -0.454919 0.271696
v 0.555014 -0.593232 -0.403237
v -0.223792 -0.878910 0.000000
v -0.755191 -0.454917 0.212839
v -0.069155 -0.878910 -0.212838
v -0.435788 -0.454919 -0.652456
v 0.485859 -0.454919 -0.616078
v 0.778809 -0.231124 0.403238
v 0.867089 0.231122 -0.131542
v -0.142839 -0.231124 0.865298
v 0.393048 0.231124 0.784000
v -0.867089 -0.231122 0.131542
v -0.624171 0.231124 0.616079
v -0.393048 -0.231124 -0.784000
v -0.778808 0.231124 -0.403238
v 0.624171 -0.231124 -0.616079
v 0.142839 0.231124 -0.865298
v 0.435788 0.454919 0.652456
v -0.485859 0.454919 0.616078
v -0.736067 0.454919 -0.271696
v 0.030941 0.454919 -0.783998
v 0.755191 0.454917 -0.212839
v 0.211993 0.593232 0.652456
v 0.223792 0.878910 0.000000
v -0.555014 0.593232 0.403237
v -0.555014 0.593232 -0.403237
v 0.211993 0.593232 -0.652456
v -0.211993 -0.593232 0.652456
v 0.181052 -0.878911 0.131541
v 0.485859 -0.454919 0.616078
v 0.736067 -0.454919 -0.271696
v 0.181052 -0.878911 -0.131541
v -0.686034 -0.593229 0.000000
v -0.435788 -0.454919 0.652456
v -0.211993 -0.593232 -0.652456
v -0.755191 -0.454917 -0.212839
v -0.030941 -0.454919 -0.783998
v 0.867089 0.231122 0.131542
v 0.778808 -0.231124 -0.403238
v 0.142839 0.231124 0.865298
v 0.624171 -0.231124 0.616079
v -0.778808 0.231124 0.403238
v -0.393048 -0.231124 0.784000
v -0.624171 0.231124 -0.616079
v -0.867089 -0.231122 -0.131542
v 0.393048 0.231124 -0.784000
v -0.142839 -0.231124 -0.865298
v 0.755191 0.454917 0.212839
v 0.030941 0.454919 0.783998
v -0.736067 0.454919 0.271696
v -0.485859 0.454919 -0.616078
v 0.435788 0.454919 -0.652456
v 0.069155 0.878910 0.212838
v 0.686035 0.593229 0.000000
v -0.181052 0.878911 0.131541
v -0.181052 0.878911 -0.131541
v 0.069155 0.878910 -0.212838
v 0.332509 0.802507 -0.241582
v 0.569077 0.656301 -0.241582
v 0.405612 0.656302 -0.466570
v -0.127009 0.802508 -0.390886
v -0.053907 0.656303 -0.615875
v -0.318396 0.656303 -0.529936
v -0.411005 0.802508 0.000000
v -0.602392 0.656302 -0.139049
v -0.602392 0.656302 0.139049
v -0.127009 0.802508 0.390886
v -0.318396 0.656303 0.529936
v -0.053907 0.656303 0.615875
v 0.332509 0.802507 0.241582
v 0.405612 0.656302 0.466570
v 0.569077 0.656301 0.241582
v 0.774582 0.245294 -0.390888
v 0.729402 0.008724 -0.529938
v 0.611117 0.245294 -0.615877
v -0.132402 0.245295 -0.857461
v -0.278606 0.008724 -0.857461
v -0.396892 0.245295 -0.771522
v -0.856409 0.245294 -0.139049
v -0.901590 0.008725 0.000000
v -0.856409 0.245294 0.139049
v -0.396892 0.245295 0.771522
v -0.278606 0.008724 0.857461
v -0.132402 0.245295 0.857461
v 0.611117 0.245294 0.615877
v 0.729402 0.008724 0.529938
v 0.774582 0.245294 0.390888
v 0.278606 -0.008724 -0.857461
v 0.396892 -0.245295 -0.771522
v 0.132402 -0.245295 -0.857461
v -0.729402 -0.008724 -0.529938
v -0.611117 -0.245294 -0.615877
v -0.774582 -0.245294 -0.390888
v -0.729402 -0.008724 0.529938
v -0.774582 -0.245294 0.390888
v -0.611117 -0.245294 0.615877
v 0.278606 -0.008724 0.857461
v 0.132402 -0.245295 0.857461
v 0.396892 -0.245295 0.771522
v 0.901590 -0.008725 0.000000
v 0.856409 -0.245294 0.139049
v 0.856409 -0.245294 -0.139049
v 0.318396 -0.656303 -0.529936
v 0.127009 -0.802508 -0.390886
v 0.053907 -0.656303 -0.615875
v -0.405612 -0.656302 -0.466570
v -0.332509 -0.802507 -0.241582
v -0.569077 -0.656301 -0.241582
v -0.569077 -0.656301 0.241582
v -0.332509 -0.802507 0.241582
v -0.405612 -0.656302 0.466570
v 0.602392 -0.656302 -0.139049
v 0.602392 -0.656302 0.139049
v 0.411005 -0.802508 0.000000
v 0.053907 -0.656303 0.615875
v 0.127009 -0.802508 0.390886
v 0.318396 -0.656303 0.529936
vn 0.0570 -0.9828 0.1754
vn 0.7209 -0.5730 0.3898
vn -0.1492 -0.9828 0.1084
vn -0.1492 -0.9828 -0.1084
vn 0.0570 -0.9828 -0.1754
vn 0.8349 -0.3886 0.3898
vn -0.1127 -0.3886 0.9145
vn -0.9046 -0.3886 0.1754
vn -0.4463 -0.3886 -0.8061
vn 0.6287 -0.3886 -0.6736
vn 0.7779 -0.2746 0.5652
vn -0.2971 -0.2746 0.9145
vn -0.9616 -0.2746 -0.0000
vn -0.2971 -0.2746 -0.9145
vn 0.7779 -0.2746 -0.5652
vn 0.3541 0.5730 0.7391
vn -0.5935 0.5730 0.5652
vn -0.7209 0.5730 -0.3898
vn 0.1479 0.5730 -0.8061
vn 0.8124 0.5730 -0.1084
vn 0.4227 0.9013 -0.0948
vn 0.5189 0.8397 -0.1603
vn 0.5731 0.6006 -0.5576
vn 0.0405 0.9013 -0.4313
vn 0.0079 0.8397 -0.5431
vn -0.3532 0.6006 -0.7173
vn -0.3977 0.9013 -0.1718
vn -0.5140 0.8397 -0.1754
vn -0.7914 0.6006 0.1142
vn -0.2863 0.9013 0.3252
vn -0.3256 0.8397 0.4347
vn -0.1359 0.6006 0.7879
vn 0.2208 0.9013 0.3727
vn 0.3128 0.8397 0.4440
vn 0.7074 0.6006 0.3727
vn 0.9342 0.1470 -0.3252
vn 0.8966 0.0843 -0.4347
vn 0.5979 0.1470 -0.7880
vn -0.0206 0.1470 -0.9889
vn -0.1363 0.0843 -0.9871
vn -0.5646 0.1470 -0.8121
vn -0.9469 0.1470 -0.2860
vn -0.9809 0.0843 -0.1754
vn -0.9469 0.1470 0.2860
vn -0.5646 0.1470 0.8121
vn -0.4699 0.0843 0.8787
vn -0.0206 0.1470 0.9889
vn 0.5979 0.1470 0.7880
vn 0.6905 0.0843 0.7184
vn 0.9342 0.1470 0.3252
vn 0.4674 0.0473 -0.8828
vn 0.4699 -0.0843 -0.8787
vn 0.1667 -0.4393 -0.8828
vn -0.6951 0.0473 -0.7173
vn -0.6905 -0.0843 -0.7184
vn -0.7880 -0.4393 -0.4313
vn -0.8970 0.0473 0.4394
vn -0.8966 -0.0843 0.4347
vn -0.6537 -0.4393 0.6162
vn 0.1407 0.0473 0.9889
vn 0.1363 -0.0843 0.9871
vn 0.3840 -0.4393 0.8121
vn 0.9840 0.0473 0.1718
vn 0.9809 -0.0843 0.1754
vn 0.8911 -0.4393 -0.1142
vn 0.4435 -0.7812 -0.4394
vn 0.3256 -0.8397 -0.4347
vn -0.1005 -0.7812 -0.6162
vn -0.2809 -0.7812 -0.5576
vn -0.3128 -0.8397 -0.4440
vn -0.6171 -0.7812 -0.0948
vn -0.6171 -0.7812 0.0948
vn -0.5189 -0.8397 0.1603
vn -0.2809 -0.7812 0.5576
vn 0.7914 -0.6006 -0.1142
vn 0.7554 -0.6553 -0.0000
vn 0.3977 -0.9013 0.1718
vn -0.1005 -0.7812 0.6162
vn -0.0079 -0.8397 0.5431
vn 0.4435 -0.7812 0.4394
vn 0.3532 -0.6006 0.7173
vn 0.4855 -0.6526 0.5818
vn 0.5935 -0.5730 0.5652
vn 0.2334 -0.6553 0.7184
vn 0.1876 -0.7947 0.5773
vn 0.3256 -0.8397 0.4347
vn -0.1479 -0.5730 0.8061
vn -0.0508 -0.6526 0.7560
vn 0.1359 -0.6006 0.7879
vn 0.3977 -0.9013 -0.1718
vn 0.3153 -0.9490 -0.0000
vn 0.1844 -0.9828 -0.0000
vn 0.5140 -0.8397 -0.1754
vn 0.6071 -0.7947 -0.0000
vn 0.5140 -0.8397 0.1754
vn 0.7209 -0.5730 -0.3898
vn 0.7033 -0.6526 -0.2819
vn 0.5550 -0.7812 -0.2860
vn -0.5731 -0.6006 0.5576
vn -0.4033 -0.6526 0.6415
vn -0.3541 -0.5730 0.7391
vn -0.6111 -0.6553 0.4440
vn -0.4911 -0.7947 0.3568
vn -0.3128 -0.8397 0.4440
vn -0.8124 -0.5730 0.1084
vn -0.7347 -0.6526 0.1853
vn -0.7074 -0.6006 0.3727
vn -0.7074 -0.6006 -0.3727
vn -0.7347 -0.6526 -0.1853
vn -0.8124 -0.5730 -0.1084
vn -0.6111 -0.6553 -0.4440
vn -0.4911 -0.7947 -0.3568
vn -0.5189 -0.8397 -0.1603
vn -0.3541 -0.5730 -0.7391
vn -0.4033 -0.6526 -0.6415
vn -0.5731 -0.6006 -0.5576
vn 0.1359 -0.6006 -0.7879
vn -0.0508 -0.6526 -0.7560
vn -0.1479 -0.5730 -0.8061
vn 0.2334 -0.6553 -0.7184
vn 0.1876 -0.7947 -0.5773
vn -0.0079 -0.8397 -0.5431
vn 0.5935 -0.5730 -0.5652
vn 0.4855 -0.6526 -0.5818
vn 0.3532 -0.6006 -0.7173
vn 0.9469 -0.1470 -0.2860
vn 0.8982 -0.3373 -0.2819
vn 0.8349 -0.3886 -0.3898
vn 0.9809 -0.0843 -0.1754
vn 0.9822 -0.1876 -0.0000
vn 0.9239 -0.3826 -0.0000
vn 0.9616 0.2746 -0.0000
vn 0.9898 0.1424 -0.0000
vn 0.9840 0.0473 -0.1718
vn 0.5646 -0.1470 0.8121
vn 0.5457 -0.3373 0.7671
vn 0.6287 -0.3886 0.6736
vn 0.4699 -0.0843 0.8787
vn 0.3035 -0.1876 0.9342
vn 0.2855 -0.3826 0.8787
vn 0.2971 0.2746 0.9145
vn 0.3059 0.1424 0.9414
vn 0.4674 0.0473 0.8828
vn -0.5979 -0.1470 0.7880
vn -0.5610 -0.3373 0.7560
vn -0.4463 -0.3886 0.8061
vn -0.6905 -0.0843 0.7184
vn -0.7947 -0.1876 0.5774
vn -0.7475 -0.3826 0.5431
vn -0.7779 0.2746 0.5652
vn -0.8008 0.1424 0.5818
vn -0.6951 0.0473 0.7173
vn -0.9342 -0.1470 -0.3252
vn -0.8924 -0.3373 -0.2999
vn -0.9046 -0.3886 -0.1754
vn -0.8966 -0.0843 -0.4347
vn -0.7947 -0.1876 -0.5774
vn -0.7475 -0.3826 -0.5431
vn -0.7779 0.2746 -0.5652
vn -0.8008 0.1424 -0.5818
vn -0.8970 0.0473 -0.4394
vn 0.0206 -0.1470 -0.9889
vn 0.0094 -0.3373 -0.9414
vn -0.1127 -0.3886 -0.9145
vn 0.1363 -0.0843 -0.9871
vn 0.3035 -0.1876 -0.9342
vn 0.2855 -0.3826 -0.8787
vn 0.2971 0.2746 -0.9145
vn 0.3059 0.1424 -0.9414
vn 0.1407 0.0473 -0.9889
vn 0.7880 0.4393 0.4313
vn 0.8924 0.3373 0.2999
vn 0.9046 0.3886 0.1754
vn 0.7475 0.3826 0.5431
vn 0.7947 0.1876 0.5774
vn 0.8966 0.0843 0.4347
vn 0.4463 0.3886 0.8061
vn 0.5610 0.3373 0.7560
vn 0.6537 0.4393 0.6162
vn -0.1667 0.4393 0.8828
vn -0.0094 0.3373 0.9414
vn 0.1127 0.3886 0.9145
vn -0.2855 0.3826 0.8787
vn -0.3035 0.1876 0.9342
vn -0.1363 0.0843 0.9871
vn -0.6287 0.3886 0.6736
vn -0.5457 0.3373 0.7671
vn -0.3840 0.4393 0.8121
vn -0.8911 0.4393 0.1142
vn -0.8982 0.3373 0.2819
vn -0.8349 0.3886 0.3898
vn -0.9239 0.3826 -0.0000
vn -0.9822 0.1876 -0.0000
vn -0.9809 0.0843 0.1754
vn -0.8349 0.3886 -0.3898
vn -0.8982 0.3373 -0.2819
vn -0.8911 0.4393 -0.1142
vn -0.3840 0.4393 -0.8121
vn -0.5457 0.3373 -0.7671
vn -0.6287 0.3886 -0.6736
vn -0.2855 0.3826 -0.8787
vn -0.3035 0.1876 -0.9342
vn -0.4699 0.0843 -0.8787
vn 0.1127 0.3886 -0.9145
vn -0.0094 0.3373 -0.9414
vn -0.1667 0.4393 -0.8828
vn 0.6537 0.4393 -0.6162
vn 0.5610 0.3373 -0.7560
vn 0.4463 0.3886 -0.8061
vn 0.7475 0.3826 -0.5431
vn 0.7947 0.1876 -0.5774
vn 0.6905 0.0843 -0.7184
vn 0.9046 0.3886 -0.1754
vn 0.8924 0.3373 -0.2999
vn 0.7880 0.4393 -0.4313
vn 0.6171 0.7812 0.0948
vn 0.7347 0.6526 0.1853
vn 0.8124 0.5730 0.1084
vn 0.5189 0.8397 0.1603
vn 0.4911 0.7947 0.3568
vn 0.6111 0.6553 0.4440
vn 0.1492 0.9828 0.1084
vn 0.2551 0.9490 0.1853
vn 0.4227 0.9013 0.0948
vn 0.1005 0.7812 0.6162
vn 0.0508 0.6526 0.7560
vn 0.1479 0.5730 0.8061
vn 0.0079 0.8397 0.5431
vn -0.1876 0.7947 0.5773
vn -0.2334 0.6553 0.7184
vn -0.0570 0.9828 0.1754
vn -0.0974 0.9490 0.2999
vn 0.0405 0.9013 0.4313
vn -0.5550 0.7812 0.2860
vn -0.7033 0.6526 0.2819
vn -0.7209 0.5730 0.3898
vn -0.5140 0.8397 0.1754
vn -0.6071 0.7947 -0.0000
vn -0.7554 0.6553 -0.0000
vn -0.1844 0.9828 -0.0000
vn -0.3153 0.9490 -0.0000
vn -0.3977 0.9013 0.1718
vn -0.4435 0.7812 -0.4394
vn -0.4855 0.6526 -0.5818
vn -0.5935 0.5730 -0.5652
vn -0.3256 0.8397 -0.4347
vn -0.1876 0.7947 -0.5773
vn -0.2334 0.6553 -0.7184
vn -0.0570 0.9828 -0.1754
vn -0.0974 0.9490 -0.2999
vn -0.2863 0.9013 -0.3252
vn 0.2809 0.7812 -0.5576
vn 0.4033 0.6526 -0.6415
vn 0.3541 0.5730 -0.7391
vn 0.3128 0.8397 -0.4440
vn 0.4911 0.7947 -0.3568
vn 0.6111 0.6553 -0.4440
vn 0.1492 0.9828 -0.1084
vn 0.2551 0.9490 -0.1853
vn 0.2208 0.9013 -0.3727
vn 0.6171 0.7812 -0.0948
vn 0.7347 0.6526 -0.1853
vn 0.7074 0.6006 -0.3727
vn 0.1005 0.7812 -0.6162
vn 0.0508 0.6526 -0.7560
vn -0.1359 0.6006 -0.7879
vn -0.5550 0.7812 -0.2860
vn -0.7033 0.6526 -0.2819
vn -0.7914 0.6006 -0.1142
vn -0.4435 0.7812 0.4394
vn -0.4855 0.6526 0.5818
vn -0.3532 0.6006 0.7173
vn 0.2809 0.7812 0.5576
vn 0.4033 0.6526 0.6415
vn 0.5731 0.6006 0.5576
vn 0.8970 -0.0473 -0.4394
vn 0.8008 -0.1424 -0.5818
vn 0.6951 -0.0473 -0.7173
vn -0.1407 -0.0473 -0.9889
vn -0.3059 -0.1424 -0.9414
vn -0.4674 -0.0473 -0.8828
vn -0.9840 -0.0473 -0.1718
vn -0.9898 -0.1424 -0.0000
vn -0.9840 -0.0473 0.1718
vn -0.4674 -0.0473 0.8828
vn -0.3059 -0.1424 0.9414
vn -0.1407 -0.0473 0.9889
vn 0.6951 -0.0473 0.7173
vn 0.8008 -0.1424 0.5818
vn 0.8970 -0.0473 0.4394
vn 0.5646 -0.1470 -0.8121
vn 0.5457 -0.3373 -0.7671
vn 0.3840 -0.4393 -0.8121
vn -0.5979 -0.1470 -0.7880
vn -0.5610 -0.3373 -0.7560
vn -0.6537 -0.4393 -0.6162
vn -0.9342 -0.1470 0.3252
vn -0.8924 -0.3373 0.2999
vn -0.7880 -0.4393 0.4313
vn 0.0206 -0.1470 0.9889
vn 0.0094 -0.3373 0.9414
vn 0.1667 -0.4393 0.8828
vn 0.9469 -0.1470 0.2860
vn 0.8982 -0.3373 0.2819
vn 0.8911 -0.4393 0.1142
vn 0.2863 -0.9013 -0.3252
vn 0.0974 -0.9490 -0.2999
vn -0.0405 -0.9013 -0.4313
vn -0.2208 -0.9013 -0.3727
vn -0.2551 -0.9490 -0.1853
vn -0.4227 -0.9013 -0.0948
vn -0.4227 -0.9013 0.0948
vn -0.2551 -0.9490 0.1853
vn -0.2208 -0.9013 0.3727
vn 0.7914 -0.6006 0.1142
vn 0.7033 -0.6526 0.2819
vn 0.5550 -0.7812 0.2860
vn -0.0405 -0.9013 0.4313
vn 0.0974 -0.9490 0.2999
vn 0.2863 -0.9013 0.3252
vt 0.181819 0.000000
vt 0.204546 0.039365
vt 0.159092 0.039365
vt 0.272728 0.157461
vt 0.295455 0.118096
vt 0.318182 0.157461
vt 0.909091 0.000000
vt 0.931818 0.039365
vt 0.886364 0.039365
vt 0.727273 0.000000
vt 0.750000 0.039365
vt 0.704546 0.039365
vt 0.545455 0.000000
vt 0.568182 0.039365
vt 0.522728 0.039365
vt 0.295455 0.196826
vt 0.090910 0.157461
vt 0.136364 0.157461
vt 0.113637 0.196826
vt 0.818182 0.157461
vt 0.863636 0.157461
vt 0.840909 0.196826
vt 0.636364 0.157461
vt 0.681818 0.157461
vt 0.659091 0.196826
vt 0.454546 0.157461
vt 0.500000 0.157461
vt 0.477273 0.196826
vt 0.250001 0.196826
vt 0.068182 0.196826
vt 0.795455 0.196826
vt 0.613637 0.196826
vt 0.431819 0.196826
vt 0.181819 0.314921
vt 0.227273 0.314921
vt 0.204546 0.354286
vt 0.000000 0.314921
vt 0.045455 0.314921
vt 0.022728 0.354286
vt 0.727273 0.314921
vt 0.772727 0.314921
vt 0.750000 0.354286
vt 0.545455 0.314921
vt 0.590909 0.314921
vt 0.568182 0.354286
vt 0.363637 0.314921
vt 0.409091 0.314921
vt 0.386364 0.354286
vt 0.409092 0.393651
vt 0.454546 0.393651
vt 0.431819 0.433017
vt 0.431819 0.354286
vt 0.454546 0.314921
vt 0.500000 0.314921
vt 0.477273 0.354286
vt 0.590909 0.393651
vt 0.636364 0.393651
vt 0.613637 0.433017
vt 0.613637 0.354286
vt 0.636364 0.314921
vt 0.681818 0.314921
vt 0.659091 0.354286
vt 0.772727 0.393651
vt 0.818182 0.393651
vt 0.795455 0.433017
vt 0.795455 0.354286
vt 0.818182 0.314921
vt 0.863636 0.314921
vt 0.840909 0.354286
vt 0.045455 0.393651
vt 0.090910 0.393651
vt 0.068182 0.433017
vt 0.068182 0.354286
vt 0.090910 0.314921
vt 0.136364 0.314921
vt 0.113637 0.354286
vt 0.227273 0.393651
vt 0.272728 0.393651
vt 0.250001 0.433017
vt 0.250001 0.354286
vt 0.272728 0.314921
vt 0.318182 0.314921
vt 0.295455 0.354286
vt 0.409092 0.236191
vt 0.431819 0.275556
vt 0.386364 0.275556
vt 0.454546 0.236191
vt 0.500000 0.236191
vt 0.522728 0.275556
vt 0.477273 0.275556
vt 0.590909 0.236191
vt 0.613637 0.275556
vt 0.568182 0.275556
vt 0.636364 0.236191
vt 0.681818 0.236191
vt 0.704546 0.275556
vt 0.659091 0.275556
vt 0.772727 0.236191
vt 0.795455 0.275556
vt 0.750000 0.275556
vt 0.818182 0.236191
vt 0.863636 0.236191
vt 0.886364 0.275556
vt 0.840909 0.275556
vt 0.045455 0.236191
vt 0.068182 0.275556
vt 0.022728 0.275556
vt 0.090910 0.236191
vt 0.136365 0.236191
vt 0.159092 0.275556
vt 0.113637 0.275556
vt 0.227273 0.236191
vt 0.250001 0.275556
vt 0.204546 0.275556
vt 0.272728 0.236191
vt 0.318182 0.236191
vt 0.340910 0.275556
vt 0.295455 0.275556
vt 0.545455 0.236191
vt 0.522728 0.196826
vt 0.545455 0.157461
vt 0.590909 0.157461
vt 0.568182 0.196826
vt 0.727273 0.236191
vt 0.704546 0.196826
vt 0.727273 0.157461
vt 0.772727 0.157461
vt 0.750000 0.196826
vt 0.909091 0.236191
vt 0.886364 0.196826
vt 0.909091 0.157461
vt 0.954545 0.157461
vt 0.931818 0.196826
vt 0.181819 0.236191
vt 0.159092 0.196826
vt 0.181819 0.157461
vt 0.227273 0.157461
vt 0.204546 0.196826
vt 0.363637 0.236191
vt 0.340910 0.196826
vt 0.363637 0.157461
vt 0.409092 0.157461
vt 0.386364 0.196826
vt 0.500000 0.078731
vt 0.522728 0.118096
vt 0.477273 0.118096
vt 0.545455 0.078731
vt 0.590909 0.078731
vt 0.613637 0.118096
vt 0.568182 0.118096
vt 0.681818 0.078731
vt 0.704546 0.118096
vt 0.659091 0.118096
vt 0.727273 0.078731
vt 0.772727 0.078731
vt 0.795455 0.118096
vt 0.750000 0.118096
vt 0.863636 0.078731
vt 0.886364 0.118096
vt 0.840909 0.118096
vt 0.909091 0.078731
vt 0.954545 0.078731
vt 0.977273 0.118096
vt 0.931818 0.118096
vt 0.386364 0.118096
vt 0.340910 0.118096
vt 0.318182 0.078731
vt 0.340910 0.039365
vt 0.363637 0.078731
vt 0.136365 0.078731
vt 0.159092 0.118096
vt 0.113637 0.118096
vt 0.181819 0.078731
vt 0.227273 0.078731
vt 0.250001 0.118096
vt 0.204546 0.118096
vt 0.386364 0.039365
vt 0.409092 0.078731
vt 0.363637 0.000000
vt 0.431819 0.118096
vt 1.000000 0.157461
vt 0.977273 0.196826
vt 0.954545 0.236191
vt 0.931818 0.275556
vt 0.909091 0.314921
vt 0.340910 0.354286
vt 0.318182 0.393651
vt 0.295455 0.433017
vt 0.272728 0.472382
vt 0.159092 0.354286
vt 0.136365 0.393651
vt 0.113637 0.433017
vt 0.090910 0.472382
vt 0.886364 0.354286
vt 0.863636 0.393651
vt 0.840909 0.433017
vt 0.818182 0.472382
vt 0.704546 0.354286
vt 0.681818 0.393651
vt 0.659091 0.433017
vt 0.636364 0.472382
vt 0.522728 0.354286
vt 0.500000 0.393651
vt 0.477273 0.433017
vt 0.454546 0.472382
s 0
f 1/1/1 74/2/1 43/3/1
f 2/4/2 44/5/2 46/6/2
f 1/7/3 43/8/3 48/9/3
f 1/10/4 48/11/4 50/12/4
f 1/13/5 50/14/5 77/15/5
f 2/4/6 46/6/6 53/16/6
f 3/17/7 45/18/7 55/19/7
f 4/20/8 49/21/8 57/22/8
f 5/23/9 51/24/9 59/25/9
f 6/26/10 52/27/10 61/28/10
f 2/4/11 53/16/11 86/29/11
f 3/17/12 55/19/12 88/30/12
f 4/20/13 57/22/13 90/31/13
f 5/23/14 59/25/14 92/32/14
f 6/26/15 61/28/15 84/33/15
f 7/34/16 63/35/16 68/36/16
f 8/37/17 64/38/17 70/39/17
f 9/40/18 65/41/18 71/42/18
f 10/43/19 66/44/19 72/45/19
f 11/46/20 67/47/20 99/48/20
f 39/49/21 103/50/21 69/51/21
f 39/49/22 104/52/22 103/50/22
f 37/53/23 97/54/23 105/55/23
f 42/56/24 106/57/24 102/58/24
f 42/56/25 107/59/25 106/57/25
f 36/60/26 96/61/26 108/62/26
f 41/63/27 109/64/27 101/65/27
f 41/63/28 110/66/28 109/64/28
f 35/67/29 95/68/29 111/69/29
f 40/70/30 112/71/30 100/72/30
f 40/70/31 113/73/31 112/71/31
f 34/74/32 94/75/32 114/76/32
f 38/77/33 115/78/33 98/79/33
f 38/77/34 116/80/34 115/78/34
f 33/81/35 93/82/35 117/83/35
f 24/84/36 118/85/36 54/86/36
f 24/84/37 119/87/37 118/85/37
f 31/88/38 91/89/38 120/90/38
f 32/91/39 121/92/39 62/93/39
f 32/91/40 122/94/40 121/92/40
f 29/95/41 89/96/41 123/97/41
f 30/98/42 124/99/42 60/100/42
f 30/98/43 125/101/43 124/99/43
f 27/102/44 87/103/44 126/104/44
f 28/105/45 127/106/45 58/107/45
f 28/105/46 128/108/46 127/106/46
f 25/109/47 85/110/47 129/111/47
f 26/112/48 130/113/48 56/114/48
f 26/112/49 131/115/49 130/113/49
f 23/116/50 83/117/50 132/118/50
f 31/88/51 133/119/51 91/89/51
f 31/88/52 134/120/52 133/119/52
f 22/121/53 82/122/53 135/123/53
f 29/95/54 136/124/54 89/96/54
f 29/95/55 137/125/55 136/124/55
f 21/126/56 81/127/56 138/128/56
f 27/102/57 139/129/57 87/103/57
f 27/102/58 140/130/58 139/129/58
f 19/131/59 79/132/59 141/133/59
f 25/109/60 142/134/60 85/110/60
f 25/109/61 143/135/61 142/134/61
f 15/136/62 75/137/62 144/138/62
f 23/116/63 145/139/63 83/117/63
f 23/116/64 146/140/64 145/139/64
f 16/141/65 76/142/65 147/143/65
f 17/144/66 148/145/66 47/146/66
f 17/144/67 149/147/67 148/145/67
f 20/148/68 80/149/68 150/150/68
f 20/151/69 151/152/69 80/153/69
f 20/151/70 152/154/70 151/152/70
f 18/155/71 78/156/71 153/157/71
f 18/158/72 154/159/72 78/160/72
f 18/158/73 155/161/73 154/159/73
f 13/162/74 73/163/74 156/164/74
f 16/141/75 157/165/75 76/142/75
f 16/141/76 158/166/76 157/165/76
f 14/167/77 74/168/77 159/169/77
f 13/170/78 160/171/78 73/172/78
f 13/170/79 161/173/79 160/171/79
f 14/174/80 44/175/80 162/176/80
f 162/176/81 75/137/81 15/136/81
f 162/176/82 44/175/82 75/137/82
f 44/175/83 2/4/83 75/137/83
f 160/171/84 162/176/84 15/136/84
f 160/171/85 161/173/85 162/176/85
f 161/173/86 14/174/86 162/176/86
f 73/172/87 45/18/87 3/17/87
f 73/172/88 160/171/88 45/18/88
f 160/171/89 15/136/89 45/18/89
f 159/169/90 77/177/90 17/178/90
f 159/169/91 74/168/91 77/177/91
f 74/168/92 1/179/92 77/177/92
f 157/165/93 159/169/93 17/178/93
f 157/165/94 158/166/94 159/169/94
f 158/166/95 14/167/95 159/169/95
f 76/142/96 47/180/96 6/26/96
f 76/142/97 157/165/97 47/180/97
f 157/165/98 17/178/98 47/180/98
f 156/164/99 79/132/99 19/131/99
f 156/164/100 73/163/100 79/132/100
f 73/163/101 3/181/101 79/132/101
f 154/159/102 156/164/102 19/131/102
f 154/159/103 155/161/103 156/164/103
f 155/161/104 13/162/104 156/164/104
f 78/160/105 49/21/105 4/20/105
f 78/160/106 154/159/106 49/21/106
f 154/159/107 19/131/107 49/21/107
f 153/157/108 81/127/108 21/126/108
f 153/157/109 78/156/109 81/127/109
f 78/156/110 4/20/110 81/127/110
f 151/152/111 153/157/111 21/126/111
f 151/152/112 152/154/112 153/157/112
f 152/154/113 18/155/113 153/157/113
f 80/153/114 51/24/114 5/23/114
f 80/153/115 151/152/115 51/24/115
f 151/152/116 21/126/116 51/24/116
f 150/150/117 82/122/117 22/121/117
f 150/150/118 80/149/118 82/122/118
f 80/149/119 5/23/119 82/122/119
f 148/145/120 150/150/120 22/121/120
f 148/145/121 149/147/121 150/150/121
f 149/147/122 20/148/122 150/150/122
f 47/146/123 52/27/123 6/26/123
f 47/146/124 148/145/124 52/27/124
f 148/145/125 22/121/125 52/27/125
f 147/143/126 84/33/126 24/84/126
f 147/143/127 76/142/127 84/33/127
f 76/142/128 6/26/128 84/33/128
f 145/139/129 147/143/129 24/84/129
f 145/139/130 146/140/130 147/143/130
f 146/140/131 16/141/131 147/143/131
f 83/117/132 54/86/132 11/46/132
f 83/117/133 145/139/133 54/86/133
f 145/139/134 24/84/134 54/86/134
f 144/138/135 86/29/135 26/112/135
f 144/138/136 75/137/136 86/29/136
f 75/137/137 2/4/137 86/29/137
f 142/134/138 144/138/138 26/112/138
f 142/134/139 143/135/139 144/138/139
f 143/135/140 15/136/140 144/138/140
f 85/110/141 56/114/141 7/34/141
f 85/110/142 142/134/142 56/114/142
f 142/134/143 26/112/143 56/114/143
f 141/133/144 88/182/144 28/183/144
f 141/133/145 79/132/145 88/182/145
f 79/132/146 3/181/146 88/182/146
f 139/129/147 141/133/147 28/183/147
f 139/129/148 140/130/148 141/133/148
f 140/130/149 19/131/149 141/133/149
f 87/103/150 58/184/150 8/185/150
f 87/103/151 139/129/151 58/184/151
f 139/129/152 28/183/152 58/184/152
f 138/128/153 90/31/153 30/98/153
f 138/128/154 81/127/154 90/31/154
f 81/127/155 4/20/155 90/31/155
f 136/124/156 138/128/156 30/98/156
f 136/124/157 137/125/157 138/128/157
f 137/125/158 21/126/158 138/128/158
f 89/96/159 60/100/159 9/40/159
f 89/96/160 136/124/160 60/100/160
f 136/124/161 30/98/161 60/100/161
f 135/123/162 92/32/162 32/91/162
f 135/123/163 82/122/163 92/32/163
f 82/122/164 5/23/164 92/32/164
f 133/119/165 135/123/165 32/91/165
f 133/119/166 134/120/166 135/123/166
f 134/120/167 22/121/167 135/123/167
f 91/89/168 62/93/168 10/43/168
f 91/89/169 133/119/169 62/93/169
f 133/119/170 32/91/170 62/93/170
f 132/118/171 93/82/171 33/81/171
f 132/118/172 83/117/172 93/82/172
f 83/117/173 11/46/173 93/82/173
f 130/113/174 132/118/174 33/81/174
f 130/113/175 131/115/175 132/118/175
f 131/115/176 23/116/176 132/118/176
f 56/114/177 63/35/177 7/34/177
f 56/114/178 130/113/178 63/35/178
f 130/113/179 33/81/179 63/35/179
f 129/111/180 94/75/180 34/74/180
f 129/111/181 85/110/181 94/75/181
f 85/110/182 7/34/182 94/75/182
f 127/106/183 129/111/183 34/74/183
f 127/106/184 128/108/184 129/111/184
f 128/108/185 25/109/185 129/111/185
f 58/107/186 64/38/186 8/37/186
f 58/107/187 127/106/187 64/38/187
f 127/106/188 34/74/188 64/38/188
f 126/104/189 95/68/189 35/67/189
f 126/104/190 87/103/190 95/68/190
f 87/103/191 8/185/191 95/68/191
f 124/99/192 126/104/192 35/67/192
f 124/99/193 125/101/193 126/104/193
f 125/101/194 27/102/194 126/104/194
f 60/100/195 65/41/195 9/40/195
f 60/100/196 124/99/196 65/41/196
f 124/99/197 35/67/197 65/41/197
f 123/97/198 96/61/198 36/60/198
f 123/97/199 89/96/199 96/61/199
f 89/96/200 9/40/200 96/61/200
f 121/92/201 123/97/201 36/60/201
f 121/92/202 122/94/202 123/97/202
f 122/94/203 29/95/203 123/97/203
f 62/93/204 66/44/204 10/43/204
f 62/93/205 121/92/205 66/44/205
f 121/92/206 36/60/206 66/44/206
f 120/90/207 97/54/207 37/53/207
f 120/90/208 91/89/208 97/54/208
f 91/89/209 10/43/209 97/54/209
f 118/85/210 120/90/210 37/53/210
f 118/85/211 119/87/211 120/90/211
f 119/87/212 31/88/212 120/90/212
f 54/86/213 67/47/213 11/46/213
f 54/86/214 118/85/214 67/47/214
f 118/85/215 37/53/215 67/47/215
f 117/83/216 99/186/216 39/187/216
f 117/83/217 93/82/217 99/186/217
f 93/82/218 11/46/218 99/186/218
f 115/78/219 117/83/219 39/187/219
f 115/78/220 116/80/220 117/83/220
f 116/80/221 33/81/221 117/83/221
f 98/79/222 69/188/222 12/189/222
f 98/79/223 115/78/223 69/188/223
f 115/78/224 39/187/224 69/188/224
f 114/76/225 68/190/225 38/191/225
f 114/76/226 94/75/226 68/190/226
f 94/75/227 7/34/227 68/190/227
f 112/71/228 114/76/228 38/191/228
f 112/71/229 113/73/229 114/76/229
f 113/73/230 34/74/230 114/76/230
f 100/72/231 98/192/231 12/193/231
f 100/72/232 112/71/232 98/192/232
f 112/71/233 38/191/233 98/192/233
f 111/69/234 70/194/234 40/195/234
f 111/69/235 95/68/235 70/194/235
f 95/68/236 8/185/236 70/194/236
f 109/64/237 111/69/237 40/195/237
f 109/64/238 110/66/238 111/69/238
f 110/66/239 35/67/239 111/69/239
f 101/65/240 100/196/240 12/197/240
f 101/65/241 109/64/241 100/196/241
f 109/64/242 40/195/242 100/196/242
f 108/62/243 71/198/243 41/199/243
f 108/62/244 96/61/244 71/198/244
f 96/61/245 9/40/245 71/198/245
f 106/57/246 108/62/246 41/199/246
f 106/57/247 107/59/247 108/62/247
f 107/59/248 36/60/248 108/62/248
f 102/58/249 101/200/249 12/201/249
f 102/58/250 106/57/250 101/200/250
f 106/57/251 41/199/251 101/200/251
f 105/55/252 72/202/252 42/203/252
f 105/55/253 97/54/253 72/202/253
f 97/54/254 10/43/254 72/202/254
f 103/50/255 105/55/255 42/203/255
f 103/50/256 104/52/256 105/55/256
f 104/52/257 37/53/257 105/55/257
f 69/51/258 102/204/258 12/205/258
f 69/51/259 103/50/259 102/204/259
f 103/50/260 42/203/260 102/204/260
f 99/48/261 104/52/261 39/49/261
f 99/48/262 67/47/262 104/52/262
f 67/47/263 37/53/263 104/52/263
f 72/45/264 107/59/264 42/56/264
f 72/45/265 66/44/265 107/59/265
f 66/44/266 36/60/266 107/59/266
f 71/42/267 110/66/267 41/63/267
f 71/42/268 65/41/268 110/66/268
f 65/41/269 35/67/269 110/66/269
f 70/39/270 113/73/270 40/70/270
f 70/39/271 64/38/271 113/73/271
f 64/38/272 34/74/272 113/73/272
f 68/36/273 116/80/273 38/77/273
f 68/36/274 63/35/274 116/80/274
f 63/35/275 33/81/275 116/80/275
f 84/33/276 119/87/276 24/84/276
f 84/33/277 61/28/277 119/87/277
f 61/28/278 31/88/278 119/87/278
f 92/32/279 122/94/279 32/91/279
f 92/32/280 59/25/280 122/94/280
f 59/25/281 29/95/281 122/94/281
f 90/31/282 125/101/282 30/98/282
f 90/31/283 57/22/283 125/101/283
f 57/22/284 27/102/284 125/101/284
f 88/30/285 128/108/285 28/105/285
f 88/30/286 55/19/286 128/108/286
f 55/19/287 25/109/287 128/108/287
f 86/29/288 131/115/288 26/112/288
f 86/29/289 53/16/289 131/115/289
f 53/16/290 23/116/290 131/115/290
f 61/28/291 134/120/291 31/88/291
f 61/28/292 52/27/292 134/120/292
f 52/27/293 22/121/293 134/120/293
f 59/25/294 137/125/294 29/95/294
f 59/25/295 51/24/295 137/125/295
f 51/24/296 21/126/296 137/125/296
f 57/22/297 140/130/297 27/102/297
f 57/22/298 49/21/298 140/130/298
f 49/21/299 19/131/299 140/130/299
f 55/19/300 143/135/300 25/109/300
f 55/19/301 45/18/301 143/135/301
f 45/18/302 15/136/302 143/135/302
f 53/16/303 146/140/303 23/116/303
f 53/16/304 46/6/304 146/140/304
f 46/6/305 16/141/305 146/140/305
f 77/15/306 149/147/306 17/144/306
f 77/15/307 50/14/307 149/147/307
f 50/14/308 20/148/308 149/147/308
f 50/12/309 152/154/309 20/151/309
f 50/12/310 48/11/310 152/154/310
f 48/11/311 18/155/311 152/154/311
f 48/9/312 155/161/312 18/158/312
f 48/9/313 43/8/313 155/161/313
f 43/8/314 13/162/314 155/161/314
f 46/6/315 158/166/315 16/141/315
f 46/6/316 44/5/316 158/166/316
f 44/5/317 14/167/317 158/166/317
f 43/3/318 161/173/318 13/170/318
f 43/3/319 74/2/319 161/173/319
f 74/2/320 14/174/320 161/173/320
